<?xml version="1.0" encoding="utf-8"?>
<!-- Generator: Adobe Illustrator 19.0.1, SVG Export Plug-In . SVG Version: 6.00 Build 0)  -->
<svg version="1.1" id="Layer_1" xmlns="http://www.w3.org/2000/svg" xmlns:xlink="http://www.w3.org/1999/xlink" x="0px" y="0px"
	 viewBox="-615 377 48 48" style="enable-background:new -615 377 48 48;" xml:space="preserve">
<style type="text/css">
	.st0{fill:#BFD1FF;}
	.st1{fill:#4A9CFF;}
	.st2{fill:none;}
</style>
<circle class="st0" cx="-593" cy="401" r="151.3"/>
<path class="st1" d="M-534.7,401c0-22.1-12.8-41.2-31.3-50.4v27.7l30.7,30.7C-534.9,406.4-534.7,403.8-534.7,401z M-503.4,401
	c0,11.8-2.5,22.8-6.8,33l18.9,18.9c8.3-15.5,12.9-33.2,12.9-51.9c0-53.6-37.4-98.3-87.6-109.7V317
	C-529.8,327.8-503.4,361.3-503.4,401z M-687.7,288.4l-15.9,15.9l59.2,59.2h-59.2v75.1h50.1l62.6,62.6v-84.2l53.2,53.2
	c-8.4,6.5-17.8,11.6-28.2,14.8v25.8c17.3-3.9,32.9-11.9,46.2-22.6l25.5,25.7l15.9-15.9L-591,385.1L-687.7,288.4z M-591,300.9
	l-26.2,26.2l26.2,26.2V300.9z"/>
<path class="st2" d="M-754.2,237.8h326.5v326.5h-326.5V237.8z"/>
</svg>
